<svg xmlns="http://www.w3.org/2000/svg" xmlns:svg="http://www.w3.org/2000/svg" xmlns:xlink="http://www.w3.org/1999/xlink" id="svg8" width="500" height="500" version="1.1" viewBox="0 0 132.292 132.292"><defs id="defs2"><linearGradient id="linearGradient864"><stop id="stop860" offset="0" style="stop-color:#d400dc;stop-opacity:1"/><stop id="stop862" offset="1" style="stop-color:#0096cc;stop-opacity:1"/></linearGradient><filter style="color-interpolation-filters:sRGB" id="filter5014" width="1.077" height="1.077" x="-.038" y="-.038"><feGaussianBlur id="feGaussianBlur5016" stdDeviation="1.905"/></filter><filter id="filter33" width="1.24" height="1.24" x="-.12" y="-.12" style="color-interpolation-filters:sRGB"><feGaussianBlur id="feGaussianBlur35" stdDeviation="3.829"/></filter><linearGradient id="linearGradient866" x1="39.31" x2="92.415" y1="40.254" y2="95.061" gradientUnits="userSpaceOnUse" xlink:href="#linearGradient864"/></defs><metadata id="metadata5"/><g style="display:inline" id="layer1"><circle style="display:inline;opacity:.36;fill:#000;fill-opacity:1;fill-rule:evenodd;stroke-width:.256424;filter:url(#filter5014)" id="circle3352" cx="66.146" cy="68.065" r="59.531"/><circle id="path1917" cx="66.146" cy="66.146" r="59.531" style="display:inline;fill:#fff;fill-opacity:1;fill-rule:evenodd;stroke-width:.256424"/></g><g style="display:inline" id="layer2"><path style="display:inline;opacity:.16;stroke-width:4.2543;filter:url(#filter33)" id="path20" d="M 104.43196,60.676625 H 75.5878 L 87.244578,48.679498 C 75.630345,37.192887 56.826327,36.767462 45.212095,48.254041 c -11.614249,11.529158 -11.614249,30.120448 0,41.692154 11.614232,11.486595 30.41825,11.486595 42.032483,0 5.785859,-5.743316 8.678776,-12.422572 8.678776,-20.846087 h 8.508606 c 0,8.423515 -3.74378,19.357078 -11.231356,26.759564 -14.932603,14.804968 -39.182115,14.804968 -54.114702,0 -14.890057,-14.762437 -15.017677,-38.756691 -0.08522,-53.519111 14.932602,-14.76242 38.884311,-14.76242 53.816898,0 L 104.43184,30.38598 V 60.676593 M 68.27028,51.657487 V 69.738262 L 83.160321,78.587201 80.097224,83.734908 61.88883,72.928978 V 51.657487 Z"/><path id="path31" d="M 104.43196,58.476645 H 75.5878 L 87.244578,46.479518 C 75.630345,34.992907 56.826327,34.567482 45.212095,46.054061 c -11.614249,11.529158 -11.614249,30.120448 0,41.692154 11.614232,11.486597 30.41825,11.486597 42.032483,0 5.785859,-5.743316 8.678776,-12.422572 8.678776,-20.846087 h 8.508606 c 0,8.423515 -3.74378,19.357078 -11.231356,26.759564 -14.932603,14.804968 -39.182115,14.804968 -54.114702,0 -14.890057,-14.762437 -15.017677,-38.756691 -0.08522,-53.519111 14.932602,-14.76242 38.884311,-14.76242 53.816898,0 L 104.43184,28.186 V 58.476613 M 68.27028,49.457507 V 67.538282 L 83.160321,76.387221 80.097224,81.534928 61.88883,70.728998 V 49.457507 Z" style="display:inline;fill:url(#linearGradient866);fill-opacity:1;stroke-width:4.2543"/></g></svg>